<?xml version="1.0" encoding="UTF-8" standalone="no"?> <!-- Created with Vectornator for iOS (http://vectornator.io/) --><!DOCTYPE svg PUBLIC "-//W3C//DTD SVG 1.1//EN" "http://www.w3.org/Graphics/SVG/1.1/DTD/svg11.dtd">
<svg height="100%" style="fill-rule:evenodd;clip-rule:evenodd;stroke-linecap:round;stroke-linejoin:round;" xmlns:xlink="http://www.w3.org/1999/xlink" xmlns="http://www.w3.org/2000/svg" xml:space="preserve" width="100%" xmlns:vectornator="http://vectornator.io" version="1.1" viewBox="0 0 512 512">
<metadata>
<vectornator:setting key="DimensionsVisible" value="1"/>
<vectornator:setting key="SnapToGrid" value="0"/>
<vectornator:setting key="SnapToPoints" value="0"/>
<vectornator:setting key="GuidesVisible" value="1"/>
<vectornator:setting key="RulersVisible" value="1"/>
<vectornator:setting key="CMYKEnabledKey" value="0"/>
<vectornator:setting key="SnapToEdges" value="0"/>
<vectornator:setting key="DisplayWhiteBackground" value="0"/>
<vectornator:setting key="SnapToGuides" value="0"/>
<vectornator:setting key="GridSpacing" value="36"/>
<vectornator:setting key="Units" value="Pixels"/>
<vectornator:setting key="DynamicGuides" value="1"/>
<vectornator:setting key="New" value="1"/>
</metadata>
<defs/>
<g id="Layer 1" vectornator:layerName="Layer 1">
<g vectornator:shadowOffset="11.0533" vectornator:shadowOpacity="0.333" vectornator:shadowAngle="0.791034" vectornator:shadowColor="#000000" opacity="1" vectornator:shadowRadius="32.0862">
<path d="M158.616+60.8497L164.096+60.8497C173.037+60.8497+180.285+68.787+180.285+78.5782L180.285+82.1513C180.285+91.9424+173.037+99.8798+164.096+99.8798L158.616+99.8798C149.675+99.8798+142.427+91.9424+142.427+82.1513L142.427+78.5782C142.427+68.787+149.675+60.8497+158.616+60.8497Z" opacity="1" fill="#5700ff"/>
<path d="M101.83+80.3647L107.31+80.3647C116.251+80.3647+123.499+88.302+123.499+98.0932L123.499+101.666C123.499+111.457+116.251+119.395+107.31+119.395L101.83+119.395C92.8889+119.395+85.641+111.457+85.641+101.666L85.641+98.0932C85.641+88.302+92.8889+80.3647+101.83+80.3647Z" opacity="1" fill="#0096ff"/>
<path d="M63.972+119.395L69.4525+119.395C78.3932+119.395+85.641+127.332+85.641+137.123L85.641+140.696C85.641+150.488+78.3932+158.425+69.4525+158.425L63.972+158.425C55.0313+158.425+47.7835+150.488+47.7835+140.696L47.7835+137.123C47.7835+127.332+55.0313+119.395+63.972+119.395Z" opacity="1" fill="#00b4ff"/>
<path d="M63.972+177.94L69.4525+177.94C78.3932+177.94+85.641+185.877+85.641+195.668L85.641+199.241C85.641+209.033+78.3932+216.97+69.4525+216.97L63.972+216.97C55.0313+216.97+47.7835+209.033+47.7835+199.241L47.7835+195.668C47.7835+185.877+55.0313+177.94+63.972+177.94Z" opacity="1" fill="#00b4ff"/>
<path d="M101.83+236.485L107.31+236.485C116.251+236.485+123.499+244.422+123.499+254.213L123.499+257.787C123.499+267.578+116.251+275.515+107.31+275.515L101.83+275.515C92.8889+275.515+85.641+267.578+85.641+257.787L85.641+254.213C85.641+244.422+92.8889+236.485+101.83+236.485Z" opacity="1" fill="#0096ff"/>
<path d="M158.616+236.485L164.096+236.485C173.037+236.485+180.285+244.422+180.285+254.213L180.285+257.787C180.285+267.578+173.037+275.515+164.096+275.515L158.616+275.515C149.675+275.515+142.427+267.578+142.427+257.787L142.427+254.213C142.427+244.422+149.675+236.485+158.616+236.485Z" opacity="1" fill="#5700ff"/>
<path d="M63.972+295.03L69.4525+295.03C78.3932+295.03+85.641+302.967+85.641+312.759L85.641+316.332C85.641+326.123+78.3932+334.06+69.4525+334.06L63.972+334.06C55.0313+334.06+47.7835+326.123+47.7835+316.332L47.7835+312.759C47.7835+302.967+55.0313+295.03+63.972+295.03Z" opacity="1" fill="#00b4ff"/>
<path d="M158.616+412.12L164.096+412.12C173.037+412.12+180.285+420.058+180.285+429.849L180.285+433.422C180.285+443.213+173.037+451.15+164.096+451.15L158.616+451.15C149.675+451.15+142.427+443.213+142.427+433.422L142.427+429.849C142.427+420.058+149.675+412.12+158.616+412.12Z" opacity="1" fill="#5700ff"/>
<path d="M215.402+412.12L220.883+412.12C229.823+412.12+237.071+420.058+237.071+429.849L237.071+433.422C237.071+443.213+229.823+451.15+220.883+451.15L215.402+451.15C206.462+451.15+199.214+443.213+199.214+433.422L199.214+429.849C199.214+420.058+206.462+412.12+215.402+412.12Z" opacity="1" fill="#8900ff"/>
<path d="M63.972+353.575L69.4525+353.575C78.3932+353.575+85.641+361.512+85.641+371.304L85.641+374.877C85.641+384.668+78.3932+392.605+69.4525+392.605L63.972+392.605C55.0313+392.605+47.7835+384.668+47.7835+374.877L47.7835+371.304C47.7835+361.512+55.0313+353.575+63.972+353.575Z" opacity="1" fill="#00b4ff"/>
<path d="M272.189+60.8497L277.669+60.8497C286.61+60.8497+293.858+68.787+293.858+78.5782L293.858+82.1513C293.858+91.9424+286.61+99.8798+277.669+99.8798L272.189+99.8798C263.248+99.8798+256+91.9424+256+82.1513L256+78.5782C256+68.787+263.248+60.8497+272.189+60.8497Z" opacity="1" fill="#a200ff"/>
<path d="M215.402+60.8497L220.883+60.8497C229.823+60.8497+237.071+68.787+237.071+78.5782L237.071+82.1513C237.071+91.9424+229.823+99.8798+220.883+99.8798L215.402+99.8798C206.462+99.8798+199.214+91.9424+199.214+82.1513L199.214+78.5782C199.214+68.787+206.462+60.8497+215.402+60.8497Z" opacity="1" fill="#8900ff"/>
<path d="M101.83+412.12L107.31+412.12C116.251+412.12+123.499+420.058+123.499+429.849L123.499+433.422C123.499+443.213+116.251+451.15+107.31+451.15L101.83+451.15C92.8889+451.15+85.641+443.213+85.641+433.422L85.641+429.849C85.641+420.058+92.8889+412.12+101.83+412.12Z" opacity="1" fill="#0096ff"/>
<path d="M385.761+60.8497L391.242+60.8497C400.182+60.8497+407.43+68.787+407.43+78.5782L407.43+82.1513C407.43+91.9424+400.182+99.8798+391.242+99.8798L385.761+99.8798C376.821+99.8798+369.573+91.9424+369.573+82.1513L369.573+78.5782C369.573+68.787+376.821+60.8497+385.761+60.8497Z" opacity="1" fill="#e100ff"/>
<path d="M328.975+60.8497L334.455+60.8497C343.396+60.8497+350.644+68.787+350.644+78.5782L350.644+82.1513C350.644+91.9424+343.396+99.8798+334.455+99.8798L328.975+99.8798C320.034+99.8798+312.786+91.9424+312.786+82.1513L312.786+78.5782C312.786+68.787+320.034+60.8497+328.975+60.8497Z" opacity="1" fill="#c700ff"/>
<path d="M215.402+236.485L220.883+236.485C229.823+236.485+237.071+244.422+237.071+254.213L237.071+257.787C237.071+267.578+229.823+275.515+220.883+275.515L215.402+275.515C206.462+275.515+199.214+267.578+199.214+257.787L199.214+254.213C199.214+244.422+206.462+236.485+215.402+236.485Z" opacity="1" fill="#8900ff"/>
<path d="M328.975+236.485L334.455+236.485C343.396+236.485+350.644+244.422+350.644+254.213L350.644+257.787C350.644+267.578+343.396+275.515+334.455+275.515L328.975+275.515C320.034+275.515+312.786+267.578+312.786+257.787L312.786+254.213C312.786+244.422+320.034+236.485+328.975+236.485Z" opacity="1" fill="#c700ff"/>
<path d="M272.189+236.485L277.669+236.485C286.61+236.485+293.858+244.422+293.858+254.213L293.858+257.787C293.858+267.578+286.61+275.515+277.669+275.515L272.189+275.515C263.248+275.515+256+267.578+256+257.787L256+254.213C256+244.422+263.248+236.485+272.189+236.485Z" opacity="1" fill="#a200ff"/>
<path d="M442.548+197.455L448.028+197.455C456.969+197.455+464.217+205.392+464.217+215.183L464.217+218.756C464.217+228.548+456.969+236.485+448.028+236.485L442.548+236.485C433.607+236.485+426.359+228.548+426.359+218.756L426.359+215.183C426.359+205.392+433.607+197.455+442.548+197.455Z" opacity="1" fill="#ff00f2"/>
<path d="M442.548+138.91L448.028+138.91C456.969+138.91+464.217+146.847+464.217+156.638L464.217+160.211C464.217+170.003+456.969+177.94+448.028+177.94L442.548+177.94C433.607+177.94+426.359+170.003+426.359+160.211L426.359+156.638C426.359+146.847+433.607+138.91+442.548+138.91Z" opacity="1" fill="#ff00f2"/>
<path d="M442.548+80.3647L448.028+80.3647C456.969+80.3647+464.217+88.302+464.217+98.0932L464.217+101.666C464.217+111.457+456.969+119.395+448.028+119.395L442.548+119.395C433.607+119.395+426.359+111.457+426.359+101.666L426.359+98.0932C426.359+88.302+433.607+80.3647+442.548+80.3647Z" opacity="1" fill="#ff00f2"/>
<path d="M385.761+236.485L391.242+236.485C400.182+236.485+407.43+244.422+407.43+254.213L407.43+257.787C407.43+267.578+400.182+275.515+391.242+275.515L385.761+275.515C376.821+275.515+369.573+267.578+369.573+257.787L369.573+254.213C369.573+244.422+376.821+236.485+385.761+236.485Z" opacity="1" fill="#e100ff"/>
<path d="M272.189+353.575L277.669+353.575C286.61+353.575+293.858+361.512+293.858+371.304L293.858+374.877C293.858+384.668+286.61+392.605+277.669+392.605L272.189+392.605C263.248+392.605+256+384.668+256+374.877L256+371.304C256+361.512+263.248+353.575+272.189+353.575Z" opacity="1" fill="#a200ff"/>
<path d="M272.189+295.03L277.669+295.03C286.61+295.03+293.858+302.967+293.858+312.759L293.858+316.332C293.858+326.123+286.61+334.06+277.669+334.06L272.189+334.06C263.248+334.06+256+326.123+256+316.332L256+312.759C256+302.967+263.248+295.03+272.189+295.03Z" opacity="1" fill="#a200ff"/>
<path d="M272.606+119.395L277.252+119.395C286.423+119.395+293.858+127.06+293.858+136.515L293.858+210.071C293.858+219.526+286.423+227.191+277.252+227.191L272.606+227.191C263.435+227.191+256+219.526+256+210.071L256+136.515C256+127.06+263.435+119.395+272.606+119.395Z" opacity="1" fill="#a200ff"/>
</g>
</g>
</svg>
